<svg width="163" height="37" viewBox="0 0 163 37" fill="none" xmlns="http://www.w3.org/2000/svg">
<circle cx="12.0217" cy="17.5103" r="10.6268" transform="rotate(-5.26799 12.0217 17.5103)" fill="#D5E1E7"/>
<path d="M22.886 13.8225C21.8415 14.4151 20.5143 14.0488 19.9217 13.0042C19.3291 11.9597 19.6955 10.6325 20.74 10.0399L26.6968 6.66036C27.7414 6.06776 29.0685 6.43411 29.6611 7.47863C30.2537 8.52316 29.8874 9.85032 28.8428 10.4429L22.886 13.8225Z" fill="#B1C5CE"/>
<path d="M22.8804 8.95383C21.7751 9.30312 19.1934 9.68658 17.7091 8.42612C16.2247 7.16566 16.9318 11.5381 17.4709 13.8818L24.7936 9.72736L22.9564 8.97481L22.8804 8.95383Z" fill="#B1C5CE"/>
<path d="M24.9132 12.5368C24.0464 13.3063 22.3929 15.3257 22.7134 17.2465C23.0339 19.1672 19.6434 16.3172 17.9081 14.6521L25.2307 10.4976L24.9342 12.4608L24.9132 12.5368Z" fill="#B1C5CE"/>
<circle cx="12.193" cy="17.6483" r="3.54303" transform="rotate(-95.268 12.193 17.6483)" fill="#394247"/>
<circle cx="32.9784" cy="17.6734" r="10.6268" transform="rotate(174.732 32.9784 17.6734)" fill="#D5E1E7"/>
<path d="M22.1141 21.3612C23.1586 20.7686 24.4858 21.135 25.0784 22.1795C25.671 23.224 25.3046 24.5512 24.2601 25.1438L18.3033 28.5234C17.2588 29.116 15.9316 28.7496 15.339 27.7051C14.7464 26.6606 15.1127 25.3334 16.1573 24.7408L22.1141 21.3612Z" fill="#B1C5CE"/>
<path d="M22.1198 26.2299C23.225 25.8806 25.8067 25.4971 27.2911 26.7576C28.7754 28.0181 28.0683 23.6456 27.5292 21.3019L20.2065 25.4564L22.0438 26.2089L22.1198 26.2299Z" fill="#B1C5CE"/>
<path d="M20.0868 22.647C20.9536 21.8774 22.6071 19.858 22.2866 17.9373C21.9661 16.0165 25.3566 18.8665 27.0919 20.5316L19.7693 24.6861L20.0658 22.723L20.0868 22.647Z" fill="#B1C5CE"/>
<circle cx="32.8071" cy="17.5352" r="3.54303" transform="rotate(84.732 32.8071 17.5352)" fill="#394247"/>
<mask id="path-11-outside-1_42_319" maskUnits="userSpaceOnUse" x="51" y="6" width="112" height="23" fill="black">
<rect fill="white" x="51" y="6" width="112" height="23"/>
<path d="M52.23 7H57.09C58.73 7 59.96 7.44 60.78 8.32C61.6 9.2 62.01 10.49 62.01 12.19V14.26C62.01 15.96 61.6 17.25 60.78 18.13C59.96 19.01 58.73 19.45 57.09 19.45H55.53V28H52.23V7ZM57.09 16.45C57.63 16.45 58.03 16.3 58.29 16C58.57 15.7 58.71 15.19 58.71 14.47V11.98C58.71 11.26 58.57 10.75 58.29 10.45C58.03 10.15 57.63 10 57.09 10H55.53V16.45H57.09ZM69.1723 28.3C67.5523 28.3 66.3123 27.84 65.4523 26.92C64.5923 26 64.1623 24.7 64.1623 23.02V11.98C64.1623 10.3 64.5923 9 65.4523 8.08C66.3123 7.16 67.5523 6.7 69.1723 6.7C70.7923 6.7 72.0323 7.16 72.8923 8.08C73.7523 9 74.1823 10.3 74.1823 11.98V23.02C74.1823 24.7 73.7523 26 72.8923 26.92C72.0323 27.84 70.7923 28.3 69.1723 28.3ZM69.1723 25.3C70.3123 25.3 70.8823 24.61 70.8823 23.23V11.77C70.8823 10.39 70.3123 9.7 69.1723 9.7C68.0323 9.7 67.4623 10.39 67.4623 11.77V23.23C67.4623 24.61 68.0323 25.3 69.1723 25.3ZM77.014 7H81.154L84.364 19.57H84.424V7H87.364V28H83.974L80.014 12.67H79.954V28H77.014V7ZM95.0967 28.3C93.4967 28.3 92.2767 27.85 91.4367 26.95C90.5967 26.03 90.1767 24.72 90.1767 23.02V11.98C90.1767 10.28 90.5967 8.98 91.4367 8.08C92.2767 7.16 93.4967 6.7 95.0967 6.7C96.6967 6.7 97.9167 7.16 98.7567 8.08C99.5967 8.98 100.017 10.28 100.017 11.98V13.78H96.8967V11.77C96.8967 10.39 96.3267 9.7 95.1867 9.7C94.0467 9.7 93.4767 10.39 93.4767 11.77V23.26C93.4767 24.62 94.0467 25.3 95.1867 25.3C96.3267 25.3 96.8967 24.62 96.8967 23.26V19.15H95.2467V16.15H100.017V23.02C100.017 24.72 99.5967 26.03 98.7567 26.95C97.9167 27.85 96.6967 28.3 95.0967 28.3ZM102.735 7H111.465V10H106.035V15.85H110.295V18.85H106.035V28H102.735V7ZM113.648 7H116.948V28H113.648V7ZM120.019 7H124.159L127.369 19.57H127.429V7H130.369V28H126.979L123.019 12.67H122.959V28H120.019V7ZM133.422 7H136.722V28H133.422V7ZM142.374 10H138.924V7H149.124V10H145.674V28H142.374V10ZM154.469 19.06L150.479 7H153.989L156.239 14.71H156.299L158.549 7H161.759L157.769 19.06V28H154.469V19.06Z"/>
</mask>
<path d="M52.23 7H57.09C58.73 7 59.96 7.44 60.78 8.32C61.6 9.2 62.01 10.49 62.01 12.19V14.26C62.01 15.96 61.6 17.25 60.78 18.13C59.96 19.01 58.73 19.45 57.09 19.45H55.53V28H52.23V7ZM57.09 16.45C57.63 16.45 58.03 16.3 58.29 16C58.57 15.7 58.71 15.19 58.71 14.47V11.98C58.71 11.26 58.57 10.75 58.29 10.45C58.03 10.15 57.63 10 57.09 10H55.53V16.45H57.09ZM69.1723 28.3C67.5523 28.3 66.3123 27.84 65.4523 26.92C64.5923 26 64.1623 24.7 64.1623 23.02V11.98C64.1623 10.3 64.5923 9 65.4523 8.08C66.3123 7.16 67.5523 6.7 69.1723 6.7C70.7923 6.7 72.0323 7.16 72.8923 8.08C73.7523 9 74.1823 10.3 74.1823 11.98V23.02C74.1823 24.7 73.7523 26 72.8923 26.92C72.0323 27.84 70.7923 28.3 69.1723 28.3ZM69.1723 25.3C70.3123 25.3 70.8823 24.61 70.8823 23.23V11.77C70.8823 10.39 70.3123 9.7 69.1723 9.7C68.0323 9.7 67.4623 10.39 67.4623 11.77V23.23C67.4623 24.61 68.0323 25.3 69.1723 25.3ZM77.014 7H81.154L84.364 19.57H84.424V7H87.364V28H83.974L80.014 12.67H79.954V28H77.014V7ZM95.0967 28.3C93.4967 28.3 92.2767 27.85 91.4367 26.95C90.5967 26.03 90.1767 24.72 90.1767 23.02V11.98C90.1767 10.28 90.5967 8.98 91.4367 8.08C92.2767 7.16 93.4967 6.7 95.0967 6.7C96.6967 6.7 97.9167 7.16 98.7567 8.08C99.5967 8.98 100.017 10.28 100.017 11.98V13.78H96.8967V11.77C96.8967 10.39 96.3267 9.7 95.1867 9.7C94.0467 9.7 93.4767 10.39 93.4767 11.77V23.26C93.4767 24.62 94.0467 25.3 95.1867 25.3C96.3267 25.3 96.8967 24.62 96.8967 23.26V19.15H95.2467V16.15H100.017V23.02C100.017 24.72 99.5967 26.03 98.7567 26.95C97.9167 27.85 96.6967 28.3 95.0967 28.3ZM102.735 7H111.465V10H106.035V15.85H110.295V18.85H106.035V28H102.735V7ZM113.648 7H116.948V28H113.648V7ZM120.019 7H124.159L127.369 19.57H127.429V7H130.369V28H126.979L123.019 12.67H122.959V28H120.019V7ZM133.422 7H136.722V28H133.422V7ZM142.374 10H138.924V7H149.124V10H145.674V28H142.374V10ZM154.469 19.06L150.479 7H153.989L156.239 14.71H156.299L158.549 7H161.759L157.769 19.06V28H154.469V19.06Z" fill="#D5E1E7"/>
<path d="M52.23 7V6.5C51.9539 6.5 51.73 6.72386 51.73 7H52.23ZM60.78 8.32L60.4142 8.66086V8.66086L60.78 8.32ZM60.78 18.13L60.4142 17.7891L60.78 18.13ZM55.53 19.45V18.95C55.2539 18.95 55.03 19.1739 55.03 19.45H55.53ZM55.53 28V28.5C55.8061 28.5 56.03 28.2761 56.03 28H55.53ZM52.23 28H51.73C51.73 28.2761 51.9539 28.5 52.23 28.5V28ZM58.29 16L57.9245 15.6588C57.9203 15.6633 57.9162 15.6679 57.9122 15.6725L58.29 16ZM58.29 10.45L57.9122 10.7775C57.9162 10.7821 57.9203 10.7867 57.9245 10.7912L58.29 10.45ZM55.53 10V9.5C55.2539 9.5 55.03 9.72386 55.03 10H55.53ZM55.53 16.45H55.03C55.03 16.7261 55.2539 16.95 55.53 16.95V16.45ZM52.23 7V7.5H57.09V7V6.5H52.23V7ZM57.09 7V7.5C58.6435 7.5 59.7193 7.91514 60.4142 8.66086L60.78 8.32L61.1458 7.97914C60.2007 6.96486 58.8165 6.5 57.09 6.5V7ZM60.78 8.32L60.4142 8.66086C61.1179 9.41606 61.51 10.5642 61.51 12.19H62.01H62.51C62.51 10.4158 62.0821 8.98394 61.1458 7.97914L60.78 8.32ZM62.01 12.19H61.51V14.26H62.01H62.51V12.19H62.01ZM62.01 14.26H61.51C61.51 15.8858 61.1179 17.0339 60.4142 17.7891L60.78 18.13L61.1458 18.4709C62.0821 17.4661 62.51 16.0342 62.51 14.26H62.01ZM60.78 18.13L60.4142 17.7891C59.7193 18.5349 58.6435 18.95 57.09 18.95V19.45V19.95C58.8165 19.95 60.2007 19.4851 61.1458 18.4709L60.78 18.13ZM57.09 19.45V18.95H55.53V19.45V19.95H57.09V19.45ZM55.53 19.45H55.03V28H55.53H56.03V19.45H55.53ZM55.53 28V27.5H52.23V28V28.5H55.53V28ZM52.23 28H52.73V7H52.23H51.73V28H52.23ZM57.09 16.45V16.95C57.7202 16.95 58.282 16.7726 58.6678 16.3275L58.29 16L57.9122 15.6725C57.778 15.8274 57.5398 15.95 57.09 15.95V16.45ZM58.29 16L58.6555 16.3412C59.0673 15.9 59.21 15.2292 59.21 14.47H58.71H58.21C58.21 15.1508 58.0727 15.5 57.9245 15.6588L58.29 16ZM58.71 14.47H59.21V11.98H58.71H58.21V14.47H58.71ZM58.71 11.98H59.21C59.21 11.2208 59.0673 10.55 58.6555 10.1088L58.29 10.45L57.9245 10.7912C58.0727 10.95 58.21 11.2992 58.21 11.98H58.71ZM58.29 10.45L58.6678 10.1225C58.282 9.67738 57.7202 9.5 57.09 9.5V10V10.5C57.5398 10.5 57.778 10.6226 57.9122 10.7775L58.29 10.45ZM57.09 10V9.5H55.53V10V10.5H57.09V10ZM55.53 10H55.03V16.45H55.53H56.03V10H55.53ZM55.53 16.45V16.95H57.09V16.45V15.95H55.53V16.45ZM65.4523 26.92L65.8175 26.5786L65.4523 26.92ZM65.4523 8.08L65.8175 8.42144L65.4523 8.08ZM72.8923 8.08L72.527 8.42144V8.42144L72.8923 8.08ZM72.8923 26.92L72.527 26.5786L72.8923 26.92ZM69.1723 28.3V27.8C67.6488 27.8 66.5577 27.3704 65.8175 26.5786L65.4523 26.92L65.087 27.2614C66.0668 28.3096 67.4557 28.8 69.1723 28.8V28.3ZM65.4523 26.92L65.8175 26.5786C65.0697 25.7786 64.6623 24.6165 64.6623 23.02H64.1623H63.6623C63.6623 24.7835 64.1148 26.2214 65.087 27.2614L65.4523 26.92ZM64.1623 23.02H64.6623V11.98H64.1623H63.6623V23.02H64.1623ZM64.1623 11.98H64.6623C64.6623 10.3835 65.0697 9.22142 65.8175 8.42144L65.4523 8.08L65.087 7.73856C64.1148 8.77858 63.6623 10.2165 63.6623 11.98H64.1623ZM65.4523 8.08L65.8175 8.42144C66.5577 7.62961 67.6488 7.2 69.1723 7.2V6.7V6.2C67.4557 6.2 66.0668 6.69039 65.087 7.73856L65.4523 8.08ZM69.1723 6.7V7.2C70.6957 7.2 71.7868 7.62961 72.527 8.42144L72.8923 8.08L73.2575 7.73856C72.2777 6.69039 70.8888 6.2 69.1723 6.2V6.7ZM72.8923 8.08L72.527 8.42144C73.2748 9.22142 73.6823 10.3835 73.6823 11.98H74.1823H74.6823C74.6823 10.2165 74.2297 8.77858 73.2575 7.73856L72.8923 8.08ZM74.1823 11.98H73.6823V23.02H74.1823H74.6823V11.98H74.1823ZM74.1823 23.02H73.6823C73.6823 24.6165 73.2748 25.7786 72.527 26.5786L72.8923 26.92L73.2575 27.2614C74.2297 26.2214 74.6823 24.7835 74.6823 23.02H74.1823ZM72.8923 26.92L72.527 26.5786C71.7868 27.3704 70.6957 27.8 69.1723 27.8V28.3V28.8C70.8888 28.8 72.2777 28.3096 73.2575 27.2614L72.8923 26.92ZM69.1723 25.3V25.8C69.8472 25.8 70.4353 25.5912 70.8402 25.1009C71.2301 24.629 71.3823 23.9763 71.3823 23.23H70.8823H70.3823C70.3823 23.8637 70.2494 24.246 70.0693 24.4641C69.9042 24.6638 69.6374 24.8 69.1723 24.8V25.3ZM70.8823 23.23H71.3823V11.77H70.8823H70.3823V23.23H70.8823ZM70.8823 11.77H71.3823C71.3823 11.0237 71.2301 10.371 70.8402 9.89906C70.4353 9.40885 69.8472 9.2 69.1723 9.2V9.7V10.2C69.6374 10.2 69.9042 10.3362 70.0693 10.5359C70.2494 10.754 70.3823 11.1363 70.3823 11.77H70.8823ZM69.1723 9.7V9.2C68.4974 9.2 67.9092 9.40885 67.5043 9.89906C67.1144 10.371 66.9623 11.0237 66.9623 11.77H67.4623H67.9623C67.9623 11.1363 68.0951 10.754 68.2752 10.5359C68.4403 10.3362 68.7072 10.2 69.1723 10.2V9.7ZM67.4623 11.77H66.9623V23.23H67.4623H67.9623V11.77H67.4623ZM67.4623 23.23H66.9623C66.9623 23.9763 67.1144 24.629 67.5043 25.1009C67.9092 25.5912 68.4974 25.8 69.1723 25.8V25.3V24.8C68.7072 24.8 68.4403 24.6638 68.2752 24.4641C68.0951 24.246 67.9623 23.8637 67.9623 23.23H67.4623ZM77.014 7V6.5C76.7378 6.5 76.514 6.72386 76.514 7H77.014ZM81.154 7L81.6384 6.87628C81.5819 6.6549 81.3825 6.5 81.154 6.5V7ZM84.364 19.57L83.8795 19.6937C83.9361 19.9151 84.1355 20.07 84.364 20.07V19.57ZM84.424 19.57V20.07C84.7001 20.07 84.924 19.8461 84.924 19.57H84.424ZM84.424 7V6.5C84.1478 6.5 83.924 6.72386 83.924 7H84.424ZM87.364 7H87.864C87.864 6.72386 87.6401 6.5 87.364 6.5V7ZM87.364 28V28.5C87.6401 28.5 87.864 28.2761 87.864 28H87.364ZM83.974 28L83.4899 28.1251C83.5469 28.3458 83.746 28.5 83.974 28.5V28ZM80.014 12.67L80.4981 12.5449C80.4411 12.3242 80.242 12.17 80.014 12.17V12.67ZM79.954 12.67V12.17C79.6778 12.17 79.454 12.3939 79.454 12.67H79.954ZM79.954 28V28.5C80.2301 28.5 80.454 28.2761 80.454 28H79.954ZM77.014 28H76.514C76.514 28.2761 76.7378 28.5 77.014 28.5V28ZM77.014 7V7.5H81.154V7V6.5H77.014V7ZM81.154 7L80.6695 7.12371L83.8795 19.6937L84.364 19.57L84.8484 19.4463L81.6384 6.87628L81.154 7ZM84.364 19.57V20.07H84.424V19.57V19.07H84.364V19.57ZM84.424 19.57H84.924V7H84.424H83.924V19.57H84.424ZM84.424 7V7.5H87.364V7V6.5H84.424V7ZM87.364 7H86.864V28H87.364H87.864V7H87.364ZM87.364 28V27.5H83.974V28V28.5H87.364V28ZM83.974 28L84.4581 27.8749L80.4981 12.5449L80.014 12.67L79.5299 12.7951L83.4899 28.1251L83.974 28ZM80.014 12.67V12.17H79.954V12.67V13.17H80.014V12.67ZM79.954 12.67H79.454V28H79.954H80.454V12.67H79.954ZM79.954 28V27.5H77.014V28V28.5H79.954V28ZM77.014 28H77.514V7H77.014H76.514V28H77.014ZM91.4367 26.95L91.0675 27.2872L91.0712 27.2912L91.4367 26.95ZM91.4367 8.08L91.8023 8.42118L91.806 8.41713L91.4367 8.08ZM98.7567 8.08L98.3875 8.41715L98.3912 8.42116L98.7567 8.08ZM100.017 13.78V14.28C100.293 14.28 100.517 14.0561 100.517 13.78H100.017ZM96.8967 13.78H96.3967C96.3967 14.0561 96.6206 14.28 96.8967 14.28V13.78ZM96.8967 19.15H97.3967C97.3967 18.8739 97.1729 18.65 96.8967 18.65V19.15ZM95.2467 19.15H94.7467C94.7467 19.4261 94.9706 19.65 95.2467 19.65V19.15ZM95.2467 16.15V15.65C94.9706 15.65 94.7467 15.8739 94.7467 16.15H95.2467ZM100.017 16.15H100.517C100.517 15.8739 100.293 15.65 100.017 15.65V16.15ZM98.7567 26.95L99.1223 27.2912L99.126 27.2871L98.7567 26.95ZM95.0967 28.3V27.8C93.5915 27.8 92.5215 27.3794 91.8022 26.6088L91.4367 26.95L91.0712 27.2912C92.032 28.3206 93.4019 28.8 95.0967 28.8V28.3ZM91.4367 26.95L91.806 26.6129C91.0766 25.8141 90.6767 24.6412 90.6767 23.02H90.1767H89.6767C89.6767 24.7988 90.1168 26.2459 91.0675 27.2871L91.4367 26.95ZM90.1767 23.02H90.6767V11.98H90.1767H89.6767V23.02H90.1767ZM90.1767 11.98H90.6767C90.6767 10.3579 91.077 9.19824 91.8022 8.42116L91.4367 8.08L91.0712 7.73884C90.1165 8.76176 89.6767 10.2021 89.6767 11.98H90.1767ZM91.4367 8.08L91.806 8.41713C92.526 7.62855 93.5948 7.2 95.0967 7.2V6.7V6.2C93.3986 6.2 92.0275 6.69145 91.0675 7.74286L91.4367 8.08ZM95.0967 6.7V7.2C96.5986 7.2 97.6675 7.62855 98.3875 8.41713L98.7567 8.08L99.126 7.74286C98.166 6.69145 96.7948 6.2 95.0967 6.2V6.7ZM98.7567 8.08L98.3912 8.42116C99.1165 9.19824 99.5167 10.3579 99.5167 11.98H100.017H100.517C100.517 10.2021 100.077 8.76176 99.1222 7.73884L98.7567 8.08ZM100.017 11.98H99.5167V13.78H100.017H100.517V11.98H100.017ZM100.017 13.78V13.28H96.8967V13.78V14.28H100.017V13.78ZM96.8967 13.78H97.3967V11.77H96.8967H96.3967V13.78H96.8967ZM96.8967 11.77H97.3967C97.3967 11.0237 97.2445 10.371 96.8547 9.89906C96.4497 9.40885 95.8616 9.2 95.1867 9.2V9.7V10.2C95.6518 10.2 95.9187 10.3362 96.0837 10.5359C96.2639 10.754 96.3967 11.1363 96.3967 11.77H96.8967ZM95.1867 9.7V9.2C94.5118 9.2 93.9237 9.40885 93.5187 9.89906C93.1289 10.371 92.9767 11.0237 92.9767 11.77H93.4767H93.9767C93.9767 11.1363 94.1095 10.754 94.2897 10.5359C94.4547 10.3362 94.7216 10.2 95.1867 10.2V9.7ZM93.4767 11.77H92.9767V23.26H93.4767H93.9767V11.77H93.4767ZM93.4767 23.26H92.9767C92.9767 23.9977 93.1295 24.6441 93.521 25.1112C93.9268 25.5952 94.5142 25.8 95.1867 25.8V25.3V24.8C94.7192 24.8 94.4517 24.6648 94.2874 24.4688C94.109 24.2559 93.9767 23.8823 93.9767 23.26H93.4767ZM95.1867 25.3V25.8C95.8592 25.8 96.4467 25.5952 96.8524 25.1112C97.244 24.6441 97.3967 23.9977 97.3967 23.26H96.8967H96.3967C96.3967 23.8823 96.2645 24.2559 96.086 24.4688C95.9218 24.6648 95.6542 24.8 95.1867 24.8V25.3ZM96.8967 23.26H97.3967V19.15H96.8967H96.3967V23.26H96.8967ZM96.8967 19.15V18.65H95.2467V19.15V19.65H96.8967V19.15ZM95.2467 19.15H95.7467V16.15H95.2467H94.7467V19.15H95.2467ZM95.2467 16.15V16.65H100.017V16.15V15.65H95.2467V16.15ZM100.017 16.15H99.5167V23.02H100.017H100.517V16.15H100.017ZM100.017 23.02H99.5167C99.5167 24.6412 99.1168 25.8141 98.3875 26.6129L98.7567 26.95L99.126 27.2871C100.077 26.2459 100.517 24.7988 100.517 23.02H100.017ZM98.7567 26.95L98.3912 26.6088C97.672 27.3794 96.6019 27.8 95.0967 27.8V28.3V28.8C96.7915 28.8 98.1615 28.3206 99.1222 27.2912L98.7567 26.95ZM102.735 7V6.5C102.459 6.5 102.235 6.72386 102.235 7H102.735ZM111.465 7H111.965C111.965 6.72386 111.742 6.5 111.465 6.5V7ZM111.465 10V10.5C111.742 10.5 111.965 10.2761 111.965 10H111.465ZM106.035 10V9.5C105.759 9.5 105.535 9.72386 105.535 10H106.035ZM106.035 15.85H105.535C105.535 16.1261 105.759 16.35 106.035 16.35V15.85ZM110.295 15.85H110.795C110.795 15.5739 110.572 15.35 110.295 15.35V15.85ZM110.295 18.85V19.35C110.572 19.35 110.795 19.1261 110.795 18.85H110.295ZM106.035 18.85V18.35C105.759 18.35 105.535 18.5739 105.535 18.85H106.035ZM106.035 28V28.5C106.312 28.5 106.535 28.2761 106.535 28H106.035ZM102.735 28H102.235C102.235 28.2761 102.459 28.5 102.735 28.5V28ZM102.735 7V7.5H111.465V7V6.5H102.735V7ZM111.465 7H110.965V10H111.465H111.965V7H111.465ZM111.465 10V9.5H106.035V10V10.5H111.465V10ZM106.035 10H105.535V15.85H106.035H106.535V10H106.035ZM106.035 15.85V16.35H110.295V15.85V15.35H106.035V15.85ZM110.295 15.85H109.795V18.85H110.295H110.795V15.85H110.295ZM110.295 18.85V18.35H106.035V18.85V19.35H110.295V18.85ZM106.035 18.85H105.535V28H106.035H106.535V18.85H106.035ZM106.035 28V27.5H102.735V28V28.5H106.035V28ZM102.735 28H103.235V7H102.735H102.235V28H102.735ZM113.648 7V6.5C113.372 6.5 113.148 6.72386 113.148 7H113.648ZM116.948 7H117.448C117.448 6.72386 117.224 6.5 116.948 6.5V7ZM116.948 28V28.5C117.224 28.5 117.448 28.2761 117.448 28H116.948ZM113.648 28H113.148C113.148 28.2761 113.372 28.5 113.648 28.5V28ZM113.648 7V7.5H116.948V7V6.5H113.648V7ZM116.948 7H116.448V28H116.948H117.448V7H116.948ZM116.948 28V27.5H113.648V28V28.5H116.948V28ZM113.648 28H114.148V7H113.648H113.148V28H113.648ZM120.019 7V6.5C119.743 6.5 119.519 6.72386 119.519 7H120.019ZM124.159 7L124.644 6.87628C124.587 6.6549 124.388 6.5 124.159 6.5V7ZM127.369 19.57L126.885 19.6937C126.942 19.9151 127.141 20.07 127.369 20.07V19.57ZM127.429 19.57V20.07C127.706 20.07 127.929 19.8461 127.929 19.57H127.429ZM127.429 7V6.5C127.153 6.5 126.929 6.72386 126.929 7H127.429ZM130.369 7H130.869C130.869 6.72386 130.646 6.5 130.369 6.5V7ZM130.369 28V28.5C130.646 28.5 130.869 28.2761 130.869 28H130.369ZM126.979 28L126.495 28.1251C126.552 28.3458 126.751 28.5 126.979 28.5V28ZM123.019 12.67L123.504 12.5449C123.447 12.3242 123.247 12.17 123.019 12.17V12.67ZM122.959 12.67V12.17C122.683 12.17 122.459 12.3939 122.459 12.67H122.959ZM122.959 28V28.5C123.236 28.5 123.459 28.2761 123.459 28H122.959ZM120.019 28H119.519C119.519 28.2761 119.743 28.5 120.019 28.5V28ZM120.019 7V7.5H124.159V7V6.5H120.019V7ZM124.159 7L123.675 7.12371L126.885 19.6937L127.369 19.57L127.854 19.4463L124.644 6.87628L124.159 7ZM127.369 19.57V20.07H127.429V19.57V19.07H127.369V19.57ZM127.429 19.57H127.929V7H127.429H126.929V19.57H127.429ZM127.429 7V7.5H130.369V7V6.5H127.429V7ZM130.369 7H129.869V28H130.369H130.869V7H130.369ZM130.369 28V27.5H126.979V28V28.5H130.369V28ZM126.979 28L127.464 27.8749L123.504 12.5449L123.019 12.67L122.535 12.7951L126.495 28.1251L126.979 28ZM123.019 12.67V12.17H122.959V12.67V13.17H123.019V12.67ZM122.959 12.67H122.459V28H122.959H123.459V12.67H122.959ZM122.959 28V27.5H120.019V28V28.5H122.959V28ZM120.019 28H120.519V7H120.019H119.519V28H120.019ZM133.422 7V6.5C133.146 6.5 132.922 6.72386 132.922 7H133.422ZM136.722 7H137.222C137.222 6.72386 136.998 6.5 136.722 6.5V7ZM136.722 28V28.5C136.998 28.5 137.222 28.2761 137.222 28H136.722ZM133.422 28H132.922C132.922 28.2761 133.146 28.5 133.422 28.5V28ZM133.422 7V7.5H136.722V7V6.5H133.422V7ZM136.722 7H136.222V28H136.722H137.222V7H136.722ZM136.722 28V27.5H133.422V28V28.5H136.722V28ZM133.422 28H133.922V7H133.422H132.922V28H133.422ZM142.374 10H142.874C142.874 9.72386 142.65 9.5 142.374 9.5V10ZM138.924 10H138.424C138.424 10.2761 138.648 10.5 138.924 10.5V10ZM138.924 7V6.5C138.648 6.5 138.424 6.72386 138.424 7H138.924ZM149.124 7H149.624C149.624 6.72386 149.4 6.5 149.124 6.5V7ZM149.124 10V10.5C149.4 10.5 149.624 10.2761 149.624 10H149.124ZM145.674 10V9.5C145.398 9.5 145.174 9.72386 145.174 10H145.674ZM145.674 28V28.5C145.95 28.5 146.174 28.2761 146.174 28H145.674ZM142.374 28H141.874C141.874 28.2761 142.098 28.5 142.374 28.5V28ZM142.374 10V9.5H138.924V10V10.5H142.374V10ZM138.924 10H139.424V7H138.924H138.424V10H138.924ZM138.924 7V7.5H149.124V7V6.5H138.924V7ZM149.124 7H148.624V10H149.124H149.624V7H149.124ZM149.124 10V9.5H145.674V10V10.5H149.124V10ZM145.674 10H145.174V28H145.674H146.174V10H145.674ZM145.674 28V27.5H142.374V28V28.5H145.674V28ZM142.374 28H142.874V10H142.374H141.874V28H142.374ZM154.469 19.06H154.969C154.969 19.0066 154.96 18.9536 154.943 18.9029L154.469 19.06ZM150.479 7V6.5C150.318 6.5 150.167 6.57707 150.073 6.70719C149.979 6.83731 149.953 7.00465 150.004 7.15705L150.479 7ZM153.989 7L154.469 6.85993C154.406 6.64663 154.211 6.5 153.989 6.5V7ZM156.239 14.71L155.759 14.8501C155.821 15.0634 156.016 15.21 156.239 15.21V14.71ZM156.299 14.71V15.21C156.521 15.21 156.716 15.0634 156.779 14.8501L156.299 14.71ZM158.549 7V6.5C158.326 6.5 158.131 6.64663 158.069 6.85993L158.549 7ZM161.759 7L162.233 7.15705C162.284 7.00465 162.258 6.83731 162.164 6.70719C162.07 6.57707 161.919 6.5 161.759 6.5V7ZM157.769 19.06L157.294 18.9029C157.277 18.9536 157.269 19.0066 157.269 19.06H157.769ZM157.769 28V28.5C158.045 28.5 158.269 28.2761 158.269 28H157.769ZM154.469 28H153.969C153.969 28.2761 154.192 28.5 154.469 28.5V28ZM154.469 19.06L154.943 18.9029L150.953 6.84295L150.479 7L150.004 7.15705L153.994 19.2171L154.469 19.06ZM150.479 7V7.5H153.989V7V6.5H150.479V7ZM153.989 7L153.509 7.14007L155.759 14.8501L156.239 14.71L156.719 14.5699L154.469 6.85993L153.989 7ZM156.239 14.71V15.21H156.299V14.71V14.21H156.239V14.71ZM156.299 14.71L156.779 14.8501L159.029 7.14007L158.549 7L158.069 6.85993L155.819 14.5699L156.299 14.71ZM158.549 7V7.5H161.759V7V6.5H158.549V7ZM161.759 7L161.284 6.84295L157.294 18.9029L157.769 19.06L158.243 19.2171L162.233 7.15705L161.759 7ZM157.769 19.06H157.269V28H157.769H158.269V19.06H157.769ZM157.769 28V27.5H154.469V28V28.5H157.769V28ZM154.469 28H154.969V19.06H154.469H153.969V28H154.469Z" fill="#394247" mask="url(#path-11-outside-1_42_319)"/>
</svg>
