<?xml version="1.0" encoding="UTF-8"?>
<svg version="1.1" xmlns="http://www.w3.org/2000/svg" width="163" height="144">
<path d="M0 0 C12.27439642 10.50656191 21.53817289 23.11280952 24.6875 39.1875 C26.0075 39.5175 27.3275 39.8475 28.6875 40.1875 C29.3125 43.5625 29.3125 43.5625 29.6875 47.1875 C28.6975 48.1775 28.6975 48.1775 27.6875 49.1875 C27.47925259 52.09998879 27.36846598 54.95939843 27.3125 57.875 C26.49884814 79.14017206 18.44456628 97.03463927 3.0625 111.8125 C-14.61888997 127.13456339 -34.6090489 130.51272235 -57.3125 129.1875 C-76.34377802 127.01215717 -91.47055605 115.45469398 -103.625 101.4375 C-115.03174371 86.48991292 -118.59044882 68.77401442 -118.26171875 50.33984375 C-118.17925803 48.04975518 -118.17925803 48.04975518 -119.4375 45.625 C-120.3125 43.1875 -120.3125 43.1875 -119.625 41.0625 C-118.3125 39.1875 -118.3125 39.1875 -116.875 37.91796875 C-114.84909092 35.67427444 -114.0709 33.44761271 -113 30.625 C-108.77366812 20.20339232 -103.18527242 12.20958363 -95.3125 4.1875 C-94.70921875 3.55972656 -94.1059375 2.93195312 -93.484375 2.28515625 C-68.32039632 -21.8394407 -26.70034942 -20.42762436 0 0 Z " fill="#D4E0E6" transform="translate(126.3125,14.8125)"/>
<path d="M0 0 C17.57920163 -0.7597254 17.57920163 -0.7597254 23 4 C23.9375 6.25 23.9375 6.25 24 8 C24.66 8 25.32 8 26 8 C26.515625 8.721875 27.03125 9.44375 27.5625 10.1875 C31.7580765 15.02854981 36.0232893 17.63969678 42.453125 18.41796875 C52.04347894 18.63222134 58.21484514 17.20584229 65.421875 10.76171875 C68.05657406 7.82050767 69.44298922 4.61226501 71 1 C73.61170013 2.30585007 73.87429105 3.5767544 75.125 6.1875 C78.6577053 12.75122464 83.96029831 16.6569828 91 19 C99.43303453 19.97061832 106.1669455 18.73789607 113.0625 13.8125 C116.07642404 11.12528859 118.58772677 8.02428539 121.09375 4.8671875 C124.67323658 1.36105106 127.88506729 0.0844646 132.8671875 -0.29296875 C134.20344302 -0.27331793 135.53955326 -0.23796746 136.875 -0.1875 C137.56335938 -0.17396484 138.25171875 -0.16042969 138.9609375 -0.14648438 C140.64097001 -0.1114837 142.3205935 -0.05768954 144 0 C144.8078525 20.84708256 141.13901563 39.3500219 127.14453125 55.69921875 C115.26035496 68.44927309 99.35364785 78.92699107 81.46728516 80.17700195 C59.56149971 80.6782191 40.27869188 77.88633328 23.5625 62.625 C7.56736873 47.28428669 0.03830291 29.74839084 -0.984375 7.72265625 C-0.99656402 4.8186227 -0.93276753 2.70643912 0 0 Z " fill="#FEFEFE" transform="translate(9,64)"/>
<path d="M0 0 C12.27439642 10.50656191 21.53817289 23.11280952 24.6875 39.1875 C12.19916407 39.80336314 12.19916407 39.80336314 7.3125 37.8125 C4.13735684 34.63735684 1.5100714 31.15604101 -1.2265625 27.6015625 C-5.63228935 22.50279996 -10.86066509 19.66392444 -17.5390625 18.94921875 C-25.01268421 18.71795033 -31.60623079 19.97586446 -37.390625 24.98828125 C-41.12844219 29.03234816 -43.48001929 33.01343683 -45.3125 38.1875 C-45.6425 38.1875 -45.9725 38.1875 -46.3125 38.1875 C-46.56 37.32125 -46.8075 36.455 -47.0625 35.5625 C-49.68728218 28.47558811 -53.90508998 24.02944312 -60.3125 20.1875 C-66.6921088 17.96142374 -74.82425445 18.02475148 -81.171875 20.140625 C-87.24785413 23.42391807 -90.74983001 27.93411518 -94.42578125 33.69921875 C-96.56398323 36.51916629 -98.06636378 37.78301126 -101.3125 39.1875 C-104.86328125 39.48046875 -104.86328125 39.48046875 -108.625 39.375 C-109.87925781 39.34792969 -111.13351563 39.32085937 -112.42578125 39.29296875 C-113.37839844 39.25816406 -114.33101562 39.22335938 -115.3125 39.1875 C-112.86674615 21.76150383 -100.71407586 7.37143875 -87.1015625 -3 C-60.27674121 -20.43237686 -25.53374173 -19.53508834 0 0 Z " fill="#FEFEFE" transform="translate(126.3125,14.8125)"/>
<path d="M0 0 C4.00022198 3.00507674 7.89725527 6.09842039 10.51171875 10.41796875 C10.82421875 13.16796875 10.82421875 13.16796875 10.51171875 15.41796875 C9.51171875 16.41796875 9.51171875 16.41796875 7.26171875 16.91796875 C4.51171875 16.41796875 4.51171875 16.41796875 2.26171875 13.23046875 C1.85695312 12.59496094 1.4521875 11.95945312 1.03515625 11.3046875 C-2.53367196 6.88483103 -9.02350794 3.86298551 -14.6171875 3.14453125 C-21.60823654 2.85276997 -26.74505575 4.38141126 -32.48828125 8.41796875 C-35.06964342 10.91621013 -37.33531466 13.54497029 -39.48828125 16.41796875 C-41.13828125 16.08796875 -42.78828125 15.75796875 -44.48828125 15.41796875 C-44.39269945 10.73446076 -43.75564718 8.22634404 -40.48828125 4.79296875 C-29.27725879 -5.44919992 -13.28643018 -8.44741636 0 0 Z " fill="#3F474C" transform="translate(98.48828125,103.58203125)"/>
<path d="M0 0 C3 1 3 1 4.16796875 2.99609375 C4.50441406 3.80175781 4.84085938 4.60742188 5.1875 5.4375 C5.53167969 6.24058594 5.87585937 7.04367188 6.23046875 7.87109375 C7 10 7 10 7 12 C5.02 12 3.04 12 1 12 C1 12.66 1 13.32 1 14 C2.65 14 4.3 14 6 14 C5.53680089 18.72463088 4.90108294 22.17057052 2 26 C1.34 26 0.68 26 0 26 C-0.20625 25.401875 -0.4125 24.80375 -0.625 24.1875 C-2.58700024 21.06613598 -4.59612356 20.3817332 -8 19 C-11.48194664 18.6753828 -14.85221261 18.5637106 -18.34179688 18.56054688 C-23.5375374 18.41880043 -23.5375374 18.41880043 -26.02734375 16.1640625 C-27 14 -27 14 -26.375 10.8125 C-25.92125 9.884375 -25.4675 8.95625 -25 8 C-21.48778587 6.82926196 -18.88117722 7.04195574 -15.1875 7.1875 C-9.32756601 7.23587923 -6.2197467 7.10253151 -2 3 C-1.34 2.01 -0.68 1.02 0 0 Z " fill="#B2C5CE" transform="translate(33,46)"/>
<path d="M0 0 C3.70344028 1.23448009 5.30250982 3.23334341 8 6 C11.61578748 7.80789374 16.13414527 7.33035461 20.14648438 7.4296875 C25.51945581 7.66607854 25.51945581 7.66607854 27.984375 9.37890625 C29.43389215 11.69255862 29.34249249 13.32855854 29 16 C26.12569839 18.87430161 23.16208941 18.29121939 19.3125 18.375 C13.19021612 18.62641454 8.84677161 19.07642298 4 23 C3.34 23.99 2.68 24.98 2 26 C1.34 26 0.68 26 0 26 C-0.67354499 24.56570999 -1.33859701 23.12742943 -2 21.6875 C-2.37125 20.88699219 -2.7425 20.08648437 -3.125 19.26171875 C-4 17 -4 17 -4 14 C-2.02 14 -0.04 14 2 14 C2 13.34 2 12.68 2 12 C0.02 12 -1.96 12 -4 12 C-3.45660208 7.43545749 -2.20536179 4.0271824 0 0 Z " fill="#B1C5CE" transform="translate(127,46)"/>
<path d="M0 0 C3.76991795 0.70685962 5.40418092 1.74418215 8 4.5625 C9.45803142 8.50776149 9.24256489 10.02683586 7.5 13.875 C5 16.5625 5 16.5625 1.5625 17.625 C-2.34309148 17.55648085 -3.97299191 16.96630055 -7 14.5625 C-8.56935594 11.42378812 -8.35201103 9.02394178 -8 5.5625 C-5.54999553 2.17572911 -4.13607554 0.77551416 0 0 Z " fill="#3D464B" transform="translate(56,49.4375)"/>
<path d="M0 0 C4.4297642 0.79102932 5.89210172 1.98974785 8.5 5.625 C9.20338515 9.37638748 8.76523868 11.09452264 7.0625 14.5 C3.80981455 17.19734891 1.76679951 17.35478547 -2.37109375 17.109375 C-4.5 16.625 -4.5 16.625 -7.0625 14.5 C-8.76523868 11.09452264 -9.20338515 9.37638748 -8.5 5.625 C-5.89210172 1.98974785 -4.4297642 0.79102932 0 0 Z " fill="#3C454A" transform="translate(105.5,49.375)"/>
</svg>
