<svg width="45" height="40" viewBox="0 0 45 40" fill="none" xmlns="http://www.w3.org/2000/svg">
<ellipse cx="22.4287" cy="19.9724" rx="19.9724" ry="19.9724" fill="white"/>
<path d="M29.6922 27.288C30.2013 27.5035 30.4443 28.0947 30.1719 28.5759C29.4904 29.7801 28.53 30.8097 27.3656 31.5747C25.9213 32.5237 24.228 33.0231 22.4998 33.0097C20.7717 32.9964 19.0863 32.4709 17.6568 31.4996C16.5044 30.7167 15.5601 29.6724 14.8972 28.4578C14.6324 27.9724 14.8844 27.3851 15.3969 27.1774C15.9093 26.9698 16.4869 27.222 16.7681 27.6981C17.2711 28.5494 17.9575 29.2832 18.7821 29.8434C19.884 30.5921 21.1832 30.9972 22.5153 31.0075C23.8475 31.0178 25.1527 30.6328 26.2661 29.9013C27.0993 29.3539 27.797 28.6308 28.313 27.7874C28.6016 27.3157 29.183 27.0725 29.6922 27.288Z" fill="#394247"/>
<ellipse cx="15.4528" cy="16.0958" rx="7.07477" ry="7.07477" transform="rotate(-5.26799 15.4528 16.0958)" fill="#D5E1E7"/>
<path d="M7.88715 14.8602C8.68662 14.8517 9.34159 15.4929 9.35007 16.2924C9.35855 17.0918 8.71733 17.7468 7.91786 17.7553L3.3586 17.8036C2.55914 17.8121 1.90417 17.1709 1.89569 16.3714C1.88721 15.572 2.52843 14.917 3.32789 14.9085L7.88715 14.8602Z" fill="#B1C5CE"/>
<path d="M6.321 17.698C7.07741 17.8509 8.70483 18.4597 9.16314 19.6724C9.62146 20.8851 10.619 18.1103 11.0605 16.5712L5.45589 16.6307L6.28349 17.6613L6.321 17.698Z" fill="#B1C5CE"/>
<path d="M6.29181 14.9556C7.04482 14.7868 8.65895 14.1435 9.09144 12.9214C9.52393 11.6992 10.5802 14.4523 11.0542 15.9816L5.44954 16.0411L6.25509 14.9931L6.29181 14.9556Z" fill="#B1C5CE"/>
<ellipse cx="15.5668" cy="16.1877" rx="2.35876" ry="2.35876" transform="rotate(-95.268 15.5668 16.1877)" fill="#394247"/>
<ellipse cx="29.4047" cy="16.2043" rx="7.07477" ry="7.07477" transform="rotate(174.732 29.4047 16.2043)" fill="#D5E1E7"/>
<path d="M37.1185 17.8582C36.319 17.853 35.6751 17.2006 35.6804 16.4011C35.6856 15.6016 36.338 14.9578 37.1375 14.963L41.6969 14.9929C42.4964 14.9981 43.1402 15.6504 43.135 16.4499C43.1298 17.2494 42.4774 17.8933 41.6779 17.8881L37.1185 17.8582Z" fill="#B1C5CE"/>
<path d="M38.7332 15.0476C37.9795 14.8819 36.3627 14.2452 35.9253 13.0248C35.4878 11.8044 34.4428 14.5618 33.975 16.093L39.5798 16.1297L38.77 15.085L38.7332 15.0476Z" fill="#B1C5CE"/>
<path d="M38.7153 17.7901C37.9595 17.946 36.3346 18.5615 35.8812 19.776C35.4278 20.9906 34.4189 18.2198 33.9712 16.6826L39.576 16.7193L38.7526 17.7533L38.7153 17.7901Z" fill="#B1C5CE"/>
<ellipse cx="29.2906" cy="16.1124" rx="2.35876" ry="2.35876" transform="rotate(84.732 29.2906 16.1124)" fill="#394247"/>
</svg>
